HIERARCHY
ROOT Hips
{
 OFFSET 0.000000 0.000000 0.000000
 CHANNELS 6 Xposition Yposition Zposition Yrotation Xrotation Zrotation
 JOINT Chest
 {
  OFFSET 0.000000 10.354800 0.006500
  CHANNELS 3 Yrotation Xrotation Zrotation
  JOINT Chest2
  {
   OFFSET 0.000000 10.435800 -0.013200
   CHANNELS 3 Yrotation Xrotation Zrotation
   JOINT Chest3
   {
    OFFSET 0.000000 10.393700 0.000000
    CHANNELS 3 Yrotation Xrotation Zrotation
    JOINT Chest4
    {
     OFFSET 0.000000 10.383100 0.000000
     CHANNELS 3 Yrotation Xrotation Zrotation
     JOINT Neck
     {
      OFFSET 0.000000 15.694000 0.000000
      CHANNELS 3 Yrotation Xrotation Zrotation
      JOINT Head
      {
       OFFSET 0.000000 9.711000 -0.028000
       CHANNELS 3 Yrotation Xrotation Zrotation
       End Site
       {
        OFFSET 0.000000 18.578700 -0.014800
       }
      }
     }
     JOINT RightCollar
     {
      OFFSET -3.157200 10.367500 0.000000
      CHANNELS 3 Yrotation Xrotation Zrotation
      JOINT RightShoulder
      {
       OFFSET -14.482500 0.000000 0.000000
       CHANNELS 3 Yrotation Xrotation Zrotation
       JOINT RightElbow
       {
        OFFSET 0.000000 -31.707800 0.000000
        CHANNELS 3 Yrotation Xrotation Zrotation
        JOINT RightWrist
        {
         OFFSET 0.000000 -25.659300 0.000000
         CHANNELS 3 Yrotation Xrotation Zrotation
         End Site
         {
          OFFSET 0.000000 -18.994300 0.000000
         }
        }
       }
      }
     }
     JOINT LeftCollar
     {
      OFFSET 3.157200 10.367500 0.000000
      CHANNELS 3 Yrotation Xrotation Zrotation
      JOINT LeftShoulder
      {
       OFFSET 14.482500 0.000000 0.000000
       CHANNELS 3 Yrotation Xrotation Zrotation
       JOINT LeftElbow
       {
        OFFSET 0.000000 -31.707800 0.000000
        CHANNELS 3 Yrotation Xrotation Zrotation
        JOINT LeftWrist
        {
         OFFSET 0.000000 -25.659300 0.000000
         CHANNELS 3 Yrotation Xrotation Zrotation
         End Site
         {
          OFFSET 0.000000 -18.994300 0.000000
         }
        }
       }
      }
     }
    }
   }
  }
 }
 JOINT RightHip
 {
  OFFSET -8.365600 -0.032100 -0.003200
  CHANNELS 3 Yrotation Xrotation Zrotation
  JOINT RightKnee
  {
   OFFSET 0.000000 -43.980000 0.003100
   CHANNELS 3 Yrotation Xrotation Zrotation
   JOINT RightAnkle
   {
    OFFSET 0.000000 -42.882800 0.005200
    CHANNELS 3 Yrotation Xrotation Zrotation
    JOINT RightToe
    {
     OFFSET 0.000000 -4.915500 10.826300
     CHANNELS 3 Yrotation Xrotation Zrotation
     End Site
     {
      OFFSET 0.000000 -1.517500 6.175900
     }
    }
   }
  }
 }
 JOINT LeftHip
 {
  OFFSET 8.365600 -0.032100 -0.003200
  CHANNELS 3 Yrotation Xrotation Zrotation
  JOINT LeftKnee
  {
   OFFSET 0.000000 -43.980000 0.003100
   CHANNELS 3 Yrotation Xrotation Zrotation
   JOINT LeftAnkle
   {
    OFFSET 0.000000 -42.882800 0.005200
    CHANNELS 3 Yrotation Xrotation Zrotation
    JOINT LeftToe
    {
     OFFSET 0.000000 -4.915500 10.826300
     CHANNELS 3 Yrotation Xrotation Zrotation
     End Site
     {
      OFFSET 0.000000 -1.517500 6.175900
     }
    }
   }
  }
 }
}
MOTION
Frames: 8
Frame Time: 0.008333
0.000000 91.618600 0.000000 0.000000 -5.767877 0.000000 0.000000 11.653817 0.000000 0.000000 -5.885947 0.000000 0.000000 -0.000000 0.000000 0.000000 -0.000000 0.000000 0.000000 12.528835 0.000000 0.000000 0.711642 0.000000 0.000000 -0.000000 0.000000 0.000000 0.000000 -90.000000 0.000000 -2.309062 0.000000 0.000000 2.309062 0.000000 0.000000 -0.000000 0.000000 0.000000 -0.000000 90.000000 0.000000 -2.309062 0.000000 0.000000 2.309062 0.000000 0.000000 8.520406 0.000000 0.000000 1.905762 0.000000 -0.000000 -4.658285 0.000000 0.000000 -0.000000 0.000000 0.000000 8.520406 0.000000 0.000000 1.905762 0.000000 -0.000000 -4.658285 0.000000 0.000000 -0.000000 0.000000
-9.123628 126.376854 21.647872 169.959148 -18.231415 -2.603566 -0.621659 11.689623 4.322674 -0.080416 0.881279 0.329803 -0.175352 1.494986 0.539375 -0.591450 10.657909 3.958800 1.302176 21.282187 -5.122804 2.678757 -2.796071 -5.818033 0.976650 5.798428 -5.495021 3.576227 -3.176680 -2.487195 -101.185966 -64.072961 129.509726 -18.336819 -19.113786 -39.431542 -0.856350 7.147474 0.643304 6.484897 -2.166499 -3.647540 143.716242 -72.262449 -177.381500 17.757248 -1.971961 34.821692 8.589277 -63.794211 -5.428727 -98.143973 78.430889 -92.102360 4.698286 3.902645 -17.256358 -0.011337 0.007616 -0.005148 -22.317975 -63.632772 8.099273 114.885833 85.772985 107.725162 -5.635154 -19.964888 0.507380 -0.004494 -0.003035 -0.002040
-9.120930 126.376351 21.648143 169.913838 -18.224675 -2.608692 -0.619513 11.681251 4.313192 -0.118467 0.871292 0.308518 -0.132566 1.498305 0.557352 -0.587060 10.651298 3.947165 1.325816 21.283885 -5.107167 2.608035 -2.881683 -5.824890 0.998020 5.798306 -5.482542 3.561941 -3.203646 -2.551365 -100.940970 -63.993774 129.354055 -18.371988 -19.105783 -39.398888 -0.862303 7.147538 0.654811 6.537977 -2.103536 -3.664120 143.779559 -72.247979 -177.461451 17.768989 -1.978887 34.832287 8.579723 -63.806561 -5.382452 -98.109843 78.436332 -92.040332 4.688566 3.911902 -17.293325 -0.001508 0.004431 -0.000685 -22.302583 -63.633671 8.154294 115.033907 85.770973 107.856239 -5.654872 -19.951741 0.496205 -0.006585 -0.001526 -0.002990
-9.118035 126.376070 21.647967 169.889626 -18.220315 -2.621301 -0.630856 11.672865 4.308115 -0.119460 0.869001 0.306923 -0.131894 1.495592 0.554854 -0.587646 10.645786 3.933415 1.352226 21.285326 -5.090519 2.608588 -2.891757 -5.823461 1.023230 5.798367 -5.468213 3.543894 -3.232022 -2.613942 -100.697907 -63.915359 129.199871 -18.402772 -19.104891 -39.372520 -0.841297 7.157708 0.674313 6.564536 -2.062473 -3.677992 143.854414 -72.235993 -177.548110 17.789842 -1.986973 34.849210 8.512084 -63.817362 -5.322279 -98.124206 78.424127 -92.018421 4.731807 3.914881 -17.350145 0.014054 -0.002939 0.006380 -22.303075 -63.628278 8.215794 115.265397 85.787355 108.064155 -5.673017 -19.953068 0.499287 -0.005456 0.000265 -0.002477
-9.118594 126.375880 21.646829 169.863346 -18.219638 -2.613731 -0.650924 11.666702 4.279831 -0.107429 0.868695 0.308659 -0.117626 1.498219 0.562091 -0.642545 10.613211 3.877853 1.395419 21.289049 -5.060510 2.594796 -2.921487 -5.820351 1.061586 5.800168 -5.442141 3.555045 -3.231129 -2.645184 -100.502109 -63.852651 129.081721 -18.428019 -19.107994 -39.353937 -0.786946 7.191981 0.719424 6.588225 -2.042806 -3.679199 143.823868 -72.233322 -177.523586 17.786158 -1.994102 34.875376 8.451334 -63.822901 -5.297269 -98.158918 78.448935 -92.057279 4.762243 3.912199 -17.357950 0.002582 -0.001141 0.001172 -22.262360 -63.628425 8.226990 115.569092 85.804431 108.345543 -5.686062 -19.965086 0.511749 -0.002289 -0.001214 -0.001039
-9.118225 126.375767 21.646569 169.835740 -18.218209 -2.612005 -0.653799 11.661235 4.265900 -0.103186 0.864697 0.306056 -0.106726 1.502656 0.569962 -0.642768 10.609365 3.871272 1.369308 21.264126 -5.071382 2.578622 -2.953733 -5.818402 1.037836 5.766373 -5.454346 3.570602 -3.224017 -2.674234 -100.357844 -63.799281 128.984069 -18.453777 -19.105259 -39.334617 -0.820600 7.183936 0.721137 6.634576 -1.996236 -3.693142 143.867356 -72.220150 -177.576503 17.781848 -1.997001 34.908241 8.436945 -63.825459 -5.284095 -98.193718 78.446933 -92.071492 4.754566 3.905170 -17.378999 0.001400 0.000743 0.000636 -22.220772 -63.626903 8.235066 115.885701 85.821803 108.644438 -5.683135 -19.990022 0.524262 -0.000765 -0.002147 -0.000347
-9.116298 126.375837 21.647171 169.815011 -18.217473 -2.622230 -0.678673 11.644577 4.240346 -0.079216 0.871417 0.321645 -0.132380 1.487971 0.548435 -0.604051 10.627799 3.893552 1.301811 21.200029 -5.105511 2.617204 -2.938155 -5.805734 1.013861 5.734160 -5.471440 3.590254 -3.208830 -2.682209 -100.249592 -63.759878 128.916428 -18.448773 -19.112617 -39.340598 -0.854957 7.171782 0.723497 6.638875 -1.956861 -3.721909 144.023357 -72.227228 -177.705626 17.780100 -2.000824 34.926412 8.414056 -63.828080 -5.250886 -98.231334 78.437299 -92.082974 4.755489 3.898526 -17.409446 0.008935 -0.001675 0.004057 -22.196715 -63.623539 8.248001 116.241315 85.845382 108.990878 -5.653210 -20.019073 0.528682 -0.000308 -0.002829 -0.000140
-9.114871 126.376498 21.646733 169.789600 -18.227150 -2.627688 -0.667431 11.645068 4.238376 -0.083261 0.866290 0.317843 -0.123711 1.494728 0.554995 -0.652724 10.590420 3.849696 1.335095 21.210760 -5.080744 2.610882 -2.953841 -5.803516 1.039845 5.743593 -5.459146 3.618733 -3.181723 -2.664441 -100.192873 -63.745511 128.897362 -18.473615 -19.117954 -39.328568 -0.866448 7.181594 0.754199 6.696330 -1.916388 -3.722926 144.032284 -72.232429 -177.721756 17.775476 -2.002782 34.959428 8.371976 -63.818682 -5.216377 -98.267388 78.456140 -92.103334 4.751373 3.893007 -17.429117 0.005968 -0.001377 0.002710 -22.138979 -63.612359 8.233271 116.729530 85.873221 109.467523 -5.622748 -20.049053 0.554094 -0.003043 -0.002889 -0.001381
